<svg width="11.583984" height="20.000000" viewBox="0 0 11.584 20" fill="none" xmlns="http://www.w3.org/2000/svg" xmlns:xlink="http://www.w3.org/1999/xlink">
	<desc>
			Created with Pixso.
	</desc>
	<defs/>
	<path id="Vector" d="M5.79 3.02C6.97 3.02 7.92 3.98 7.92 5.16C7.92 6.33 6.97 7.29 5.79 7.29C4.61 7.29 3.65 6.33 3.65 5.16C3.65 3.98 4.61 3.02 5.79 3.02ZM5.79 10.32C8.63 10.32 10.95 8 10.95 5.16C10.95 2.31 8.63 0 5.79 0C2.94 0 0.62 2.31 0.62 5.16C0.62 8 2.94 10.32 5.79 10.32ZM7.87 14.53C8.94 14.29 9.95 13.87 10.87 13.29C11.21 13.07 11.45 12.73 11.54 12.34C11.63 11.95 11.56 11.54 11.35 11.2C11.24 11.03 11.1 10.89 10.94 10.77C10.78 10.66 10.6 10.58 10.4 10.53C10.21 10.49 10.01 10.48 9.81 10.52C9.62 10.55 9.43 10.62 9.26 10.73C7.15 12.06 4.43 12.05 2.31 10.73C2.14 10.62 1.96 10.55 1.76 10.52C1.57 10.48 1.37 10.49 1.17 10.53C0.98 10.58 0.79 10.66 0.63 10.77C0.47 10.89 0.33 11.03 0.23 11.2C0.01 11.54 -0.06 11.95 0.03 12.34C0.12 12.73 0.36 13.07 0.7 13.29C1.62 13.87 2.64 14.29 3.7 14.53L0.81 17.41C0.53 17.7 0.37 18.08 0.37 18.48C0.37 18.88 0.53 19.27 0.81 19.55C1.1 19.84 1.48 20 1.88 19.99C2.28 19.99 2.67 19.84 2.95 19.55L5.79 16.72L8.62 19.55C8.76 19.69 8.93 19.8 9.11 19.88C9.3 19.96 9.49 20 9.69 20C9.89 20 10.09 19.96 10.27 19.88C10.45 19.8 10.62 19.69 10.76 19.55C10.9 19.41 11.01 19.25 11.09 19.06C11.16 18.88 11.2 18.68 11.2 18.48C11.2 18.28 11.16 18.09 11.09 17.9C11.01 17.72 10.9 17.55 10.76 17.41L7.87 14.53Z" fill="#EE8208" fill-opacity="1.000000" fill-rule="nonzero"/>
</svg>
