<svg width="15.000000" height="15.000000" viewBox="0 0 18 18" fill="none" xmlns="http://www.w3.org/2000/svg" xmlns:xlink="http://www.w3.org/1999/xlink">
	<desc>
			Created with Pixso.
	</desc>
	<defs/>
	<rect id="star" rx="0.000000" width="15.000000" height="15.000000" transform="translate(0.500000 0.500000)" fill="#FFFFFF" fill-opacity="0"/>
	<path id="Star 1" d="M7.1 1.81L5.88 4.29C5.73 4.58 5.45 4.79 5.12 4.83L2.39 5.23C1.57 5.35 1.24 6.36 1.84 6.94L3.81 8.86C4.05 9.09 4.16 9.42 4.1 9.75L3.64 12.47C3.5 13.29 4.35 13.91 5.09 13.52L7.53 12.24C7.82 12.09 8.17 12.09 8.46 12.24L10.9 13.52C11.64 13.91 12.5 13.29 12.35 12.47L11.89 9.75C11.83 9.42 11.94 9.09 12.18 8.86L14.15 6.94C14.75 6.36 14.42 5.35 13.6 5.23L10.87 4.83C10.54 4.79 10.26 4.58 10.11 4.29L8.89 1.81C8.53 1.07 7.46 1.07 7.1 1.81Z" fill="#BFBFBF" fill-opacity="1.000000" fill-rule="evenodd"/>
</svg>
