<svg width="20.000000" height="11.411377" viewBox="0 0 20 11.4114" fill="none" xmlns="http://www.w3.org/2000/svg" xmlns:xlink="http://www.w3.org/1999/xlink">
	<desc>
			Created with Pixso.
	</desc>
	<defs/>
	<path d="M9.78 11.36L10.98 11.36C10.98 11.36 11.34 11.32 11.52 11.12C11.69 10.94 11.68 10.59 11.68 10.59C11.68 10.59 11.66 8.99 12.41 8.75C13.14 8.52 14.08 10.3 15.08 10.99C15.84 11.51 16.41 11.4 16.41 11.4L19.08 11.36C19.08 11.36 20.48 11.27 19.82 10.17C19.76 10.08 19.43 9.36 17.83 7.88C16.16 6.32 16.38 6.57 18.4 3.88C19.63 2.25 20.12 1.25 19.96 0.82C19.82 0.41 18.91 0.52 18.91 0.52L15.91 0.54C15.91 0.54 15.69 0.51 15.52 0.61C15.36 0.7 15.25 0.93 15.25 0.93C15.25 0.93 14.78 2.2 14.14 3.27C12.8 5.55 12.27 5.67 12.05 5.53C11.54 5.2 11.67 4.2 11.67 3.5C11.67 1.29 12 0.38 11.02 0.14C10.69 0.06 10.45 0.01 9.61 0C8.54 -0.01 7.63 0 7.12 0.25C6.78 0.42 6.51 0.79 6.67 0.82C6.87 0.84 7.32 0.94 7.56 1.26C7.87 1.68 7.86 2.62 7.86 2.62C7.86 2.62 8.04 5.22 7.44 5.54C7.04 5.76 6.48 5.31 5.29 3.25C4.68 2.19 4.21 1.02 4.21 1.02C4.21 1.02 4.13 0.8 3.97 0.69C3.77 0.55 3.5 0.5 3.5 0.5L0.65 0.52C0.65 0.52 0.22 0.53 0.06 0.72C-0.08 0.88 0.05 1.23 0.05 1.23C0.05 1.23 2.29 6.46 4.82 9.1C7.14 11.52 9.78 11.36 9.78 11.36Z" fill="#1E88E5" fill-opacity="1.000000" fill-rule="nonzero"/>
</svg>
